<svg width="24" height="24" viewBox="0 0 24 24" fill="none" xmlns="http://www.w3.org/2000/svg">
<path d="M13.0481 3.83692C13.1382 3.43283 13.5385 3.17783 13.9427 3.26759C14.347 3.35755 14.602 3.75877 14.512 4.16309L10.9524 20.1631C10.8624 20.5674 10.4612 20.8224 10.0569 20.7324C9.65266 20.6424 9.39763 20.2412 9.48758 19.8369L13.0481 3.83692Z" fill="#0E0F10"/>
<path d="M17.4697 7.46973C17.7626 7.17684 18.2374 7.17684 18.5303 7.46973L22.5303 11.4697C22.8232 11.7626 22.8232 12.2374 22.5303 12.5303L18.5303 16.5303C18.2374 16.8232 17.7626 16.8232 17.4697 16.5303C17.1768 16.2374 17.1768 15.7626 17.4697 15.4697L20.9395 12L17.4697 8.53028C17.1768 8.23738 17.1768 7.76262 17.4697 7.46973Z" fill="#0E0F10"/>
<path d="M5.46973 7.46973C5.76262 7.17684 6.23738 7.17684 6.53027 7.46973C6.82317 7.76262 6.82317 8.23738 6.53027 8.53028L3.06055 12L6.53027 15.4697C6.82317 15.7626 6.82317 16.2374 6.53027 16.5303C6.23738 16.8232 5.76262 16.8232 5.46973 16.5303L1.46973 12.5303C1.17683 12.2374 1.17683 11.7626 1.46973 11.4697L5.46973 7.46973Z" fill="#0E0F10"/>
</svg>
